<svg width="76" height="88" viewBox="0 0 76 88" fill="none" xmlns="http://www.w3.org/2000/svg">
<mask id="mask0_547_292" style="mask-type:luminance" maskUnits="userSpaceOnUse" x="0" y="0" width="76" height="88">
<path d="M0.1875 0.713623H75.1875V87.6668H0.1875V0.713623Z" fill="white"/>
</mask>
<g mask="url(#mask0_547_292)">
<path d="M66.4791 41.1875C67.2551 41.2239 67.9218 41.5208 68.4791 42.0729C68.8229 42.4218 69.0781 42.8281 69.2395 43.2916C69.2916 43.4427 69.3229 43.5989 69.3333 43.7552C68.6979 44.0729 68.1301 44.4791 67.6249 44.9791L53.5156 59.1718C53.1979 58.2395 52.6926 57.427 51.9999 56.7291C51.5885 56.3281 51.1354 55.9791 50.6354 55.6979L64.1666 42.0729C64.7656 41.4791 65.4791 41.1875 66.3176 41.1875H66.4791ZM74.3385 47.4062C73.7864 46.8489 73.1197 46.5572 72.3385 46.5208H72.1874C71.3437 46.5156 70.6301 46.8125 70.0364 47.4166L53.0051 64.552C52.7291 65.052 52.3906 65.5052 51.9999 65.9114C51.3958 66.526 50.6979 66.9947 49.9062 67.3281C49.1145 67.6562 48.2916 67.8229 47.4374 67.8229H27.7656C27.5364 67.8229 27.3176 67.776 27.1093 67.6875C26.901 67.6041 26.7135 67.4791 26.5572 67.3177C26.3958 67.1562 26.2708 66.9687 26.1874 66.7604C26.0989 66.5468 26.0572 66.3281 26.0572 66.0989C26.0572 65.8697 26.0989 65.651 26.1874 65.4427C26.2708 65.2291 26.3958 65.0468 26.5572 64.8854C26.7135 64.7239 26.901 64.5989 27.1093 64.5104C27.3176 64.4218 27.5364 64.3802 27.7656 64.3802H47.4374C48.2708 64.3802 48.9843 64.0833 49.5729 63.4843C50.1718 62.8906 50.4739 62.1666 50.4739 61.3229V61.1354C50.427 60.3593 50.1249 59.7031 49.5729 59.1614L49.4583 59.0416C48.8801 58.526 48.2083 58.2656 47.4322 58.2656L18.9374 58.276C18.0312 58.1927 17.2551 58.4687 16.6041 59.1041L1.75514 74.052V87.5729H13.2656L16.427 84.2447C16.6614 83.9791 16.9531 83.802 17.2968 83.7239L49.4895 75.5729C50.2551 75.2864 50.9479 74.8906 51.5833 74.375C52.4583 73.6979 53.2812 72.9583 54.0468 72.1562L74.3385 51.7447C74.927 51.1458 75.2239 50.4218 75.2291 49.5833V49.4166C75.1822 48.6354 74.8854 47.9687 74.3385 47.4114V47.4062ZM2.73431 28.7968C1.69785 26.4531 1.07806 24.0052 0.874935 21.4531C0.666601 18.8958 0.89056 16.3802 1.5416 13.901C1.63014 13.5312 1.83327 13.2343 2.14056 13.0156C2.45306 12.7968 2.79681 12.7083 3.17702 12.75C3.3541 12.7343 3.53119 12.7447 3.70306 12.7864C6.19785 13.375 8.49993 14.3958 10.6145 15.8489C12.7291 17.302 14.5156 19.0937 15.9635 21.2135C17.4687 23.4895 18.4791 25.9635 18.9999 28.6458C19.5208 31.3229 19.5104 34 18.9687 36.677C22.7031 41.0416 27.2083 44.3229 32.4895 46.5364V39.026C31.2187 37.9531 22.6093 30.4114 23.0937 19.0989C23.3645 12.75 27.4739 5.12495 33.1406 1.10412C33.4583 0.869742 33.8176 0.765576 34.2135 0.802034C34.6041 0.765576 34.9583 0.869742 35.276 1.10412C40.9479 5.13537 45.0416 12.7864 45.3176 19.0989C45.8281 30.4322 37.2291 38.0156 35.9583 39.1041V46.5572C41.2656 44.3437 45.7968 41.052 49.5468 36.677C49.0051 34 48.9947 31.3229 49.5156 28.6458C50.0312 25.9687 51.0416 23.4895 52.5416 21.2135C53.9635 19.1406 55.7031 17.3906 57.7604 15.9531C59.8176 14.5208 62.0624 13.4947 64.4895 12.8802C64.7187 12.7916 64.9531 12.7447 65.1926 12.7395H65.2083C65.2499 12.7395 65.2916 12.7447 65.3333 12.75C65.7395 12.7864 66.0781 12.9531 66.3593 13.2447C66.6354 13.5416 66.7864 13.8906 66.802 14.2968C67.4895 16.7083 67.7239 19.1666 67.5051 21.6666C67.2812 24.1666 66.6197 26.5416 65.5208 28.7968C61.3801 37.026 53.0156 38.9687 51.8958 39.2135C47.5051 44.2447 42.1926 47.9375 35.9583 50.2916V54.8333L32.4895 54.8489V50.2656C29.4062 49.0885 26.5104 47.552 23.802 45.6614C21.2395 43.8697 18.9166 41.802 16.8437 39.4531C16.0885 39.3229 15.3437 39.1458 14.6145 38.9218C6.82806 36.5364 3.07806 29.4687 2.73431 28.7968ZM51.6354 36.3854C51.9062 36.6458 52.2291 36.776 52.6041 36.776C52.9791 36.776 53.2968 36.6458 53.5676 36.3854C54.5833 35.1666 55.4218 33.8385 56.0937 32.4062C56.7499 31.0208 57.3124 29.5937 57.9583 28.2083C58.1406 27.8802 58.1822 27.5312 58.0885 27.1666C57.9947 26.802 57.7864 26.5208 57.4687 26.3281C57.1406 26.1406 56.7968 26.0937 56.4322 26.1927C56.0729 26.2864 55.7916 26.4947 55.5989 26.8177C54.9687 28.1666 54.4218 29.552 53.7916 30.901C53.4895 31.5312 53.1718 32.151 52.8176 32.7604C52.6249 33.0833 52.4218 33.3958 52.2083 33.7031C52.1562 33.776 52.1041 33.8489 52.052 33.9218C52.0468 33.9322 51.9843 34.0104 51.9583 34.052C51.9322 34.0885 51.8645 34.1666 51.8541 34.1822C51.7812 34.2708 51.7083 34.3593 51.6354 34.4479C51.3801 34.7187 51.2499 35.0416 51.2499 35.4166C51.2499 35.7916 51.3801 36.1145 51.6354 36.3854ZM32.5208 35.5781C32.5312 35.9531 32.6718 36.2656 32.9374 36.526C33.2031 36.7864 33.5208 36.9166 33.8906 36.9166C34.2604 36.9166 34.5781 36.7864 34.8437 36.526C35.1093 36.2656 35.2447 35.9531 35.2551 35.5781V21.7968C35.2447 21.427 35.1093 21.1093 34.8437 20.8541C34.5781 20.5937 34.2604 20.4635 33.8906 20.4635C33.5208 20.4635 33.2031 20.5937 32.9374 20.8541C32.6718 21.1093 32.5312 21.427 32.5208 21.7968V35.5781ZM9.98431 29.552C11.1874 31.8437 12.651 33.9531 14.3801 35.8802C14.5051 36.0104 14.6562 36.1093 14.8229 36.177C14.9895 36.2447 15.1614 36.2812 15.3437 36.2812C15.526 36.2812 15.6979 36.2447 15.8645 36.177C16.0364 36.1093 16.1822 36.0104 16.3124 35.8802C16.5676 35.6093 16.6979 35.2864 16.6979 34.9062C16.6979 34.5312 16.5676 34.2083 16.3124 33.9375C15.9322 33.4739 15.552 33.0052 15.1822 32.5416L14.9166 32.2031L14.7812 32.0312L14.7656 32.0104C14.5781 31.7656 14.3958 31.5208 14.2187 31.276C13.4947 30.2968 12.8697 29.2604 12.3489 28.1666C12.2551 28.0104 12.1354 27.8749 11.9947 27.7656C11.8489 27.651 11.6874 27.5729 11.5104 27.526C11.3385 27.4843 11.1562 27.4687 10.9791 27.4947C10.7968 27.5208 10.6301 27.5781 10.4739 27.6718C10.1562 27.8697 9.95306 28.151 9.85931 28.5156C9.76556 28.8749 9.80723 29.2239 9.98431 29.552Z" fill="#FFA307"/>
</g>
</svg>
