<svg width="91" height="91" viewBox="0 0 91 91" fill="none" xmlns="http://www.w3.org/2000/svg">
<mask id="mask0_547_282" style="mask-type:luminance" maskUnits="userSpaceOnUse" x="0" y="0" width="91" height="91">
<path d="M0.1875 0.25H90.1875V90.25H0.1875V0.25Z" fill="white"/>
</mask>
<g mask="url(#mask0_547_282)">
<path d="M84.6303 39.7239C76.7396 39.7239 58.5261 42.3905 48.1511 44.0155C56.5938 37.8645 71.2344 26.9635 76.8855 21.3541C79.0469 19.2082 79.1563 15.6718 77.0261 13.4947C74.8698 11.2916 71.3438 11.2812 69.1719 13.4478C63.5938 19.0259 52.6042 33.7916 46.4167 42.276C48.0313 31.9582 50.6771 13.8957 50.7084 5.93741C50.7188 2.89053 48.2969 0.312407 45.25 0.281158C42.1719 0.244699 39.6667 2.72908 39.6667 5.80199C39.6667 13.6874 42.3334 31.901 43.9584 42.276C37.7709 33.7864 26.7761 19.0259 21.198 13.4478C19.0261 11.2759 15.5 11.2916 13.349 13.4947C11.2136 15.6718 11.323 19.2082 13.4896 21.3541C19.1407 26.9635 33.7813 37.8645 42.2188 44.0155C31.9011 42.3957 13.8386 39.7551 5.88026 39.7239C2.82817 39.7135 0.250048 42.1353 0.218797 45.1822C0.187548 48.2603 2.67192 50.7655 5.73963 50.7655C13.6303 50.7655 31.8438 48.0989 42.2188 46.4739C33.7761 52.6249 19.1355 63.526 13.4844 69.1353C11.323 71.2864 11.2136 74.8228 13.3438 76.9999C15.5 79.1978 19.0261 79.2135 21.198 77.0416C26.7761 71.4635 37.7657 56.6978 43.9532 48.2135C42.3334 58.5312 39.6928 76.5937 39.6615 84.5572C39.6511 87.6041 42.073 90.1822 45.125 90.2135C48.2032 90.2447 50.7084 87.7603 50.7084 84.6926C50.7084 76.802 48.0417 58.5885 46.4167 48.2135C52.6042 56.703 63.5938 71.4635 69.1719 77.0416C71.3438 79.2135 74.875 79.1978 77.0261 76.9999C79.1563 74.8228 79.0521 71.2864 76.8855 69.1353C71.2344 63.526 56.5886 52.6249 48.1511 46.4739C58.4688 48.0937 76.5313 50.7395 84.4948 50.7655C87.5417 50.7812 90.1146 48.3541 90.1511 45.3072C90.1876 42.2291 87.7032 39.7239 84.6303 39.7239Z" fill="#97CA49"/>
</g>
</svg>
