<svg width="83" height="101" viewBox="0 0 83 101" fill="none" xmlns="http://www.w3.org/2000/svg">
<mask id="mask0_547_297" style="mask-type:luminance" maskUnits="userSpaceOnUse" x="0" y="0" width="83" height="101">
<path d="M0.875 0.84375H82.875V100.844H0.875V0.84375Z" fill="white"/>
</mask>
<g mask="url(#mask0_547_297)">
<path d="M11.5624 32.0103C11.2707 32.5884 10.8124 32.9686 10.1978 33.1613C10.0051 33.2186 9.80719 33.2446 9.60928 33.2446C9.26032 33.2446 8.93219 33.1613 8.6249 32.9842C6.28636 31.7082 4.17178 30.479 2.13532 29.2186C1.7499 28.9425 1.47907 28.5832 1.32803 28.1353C1.30719 28.0832 1.28115 28.0311 1.24469 27.9842L1.15094 27.8071V27.6144C1.14574 27.1665 1.2499 26.7394 1.46865 26.3436C1.6822 25.9478 1.98428 25.6353 2.36449 25.3957C2.68219 25.2134 3.02074 25.1196 3.38532 25.1196C3.74469 25.1144 4.08844 25.203 4.40094 25.3853C6.67178 26.6144 8.91136 27.9425 10.828 29.0832C11.0624 29.229 11.2655 29.4217 11.4322 29.6457C11.5937 29.8748 11.7134 30.1248 11.7812 30.3957C11.8489 30.6717 11.8645 30.9478 11.828 31.2238C11.7916 31.505 11.703 31.7655 11.5624 32.0103ZM43.2291 12.755H43.2864C43.8801 12.7707 44.3957 12.578 44.828 12.1665C45.3176 11.6613 45.5572 11.0519 45.5416 10.3436C45.552 9.55192 45.552 8.75505 45.552 7.96338L45.5416 6.4165V5.89567C45.5416 5.0988 45.552 4.30713 45.5416 3.51025C45.5572 3.19776 45.5103 2.89567 45.4062 2.604C45.2968 2.31234 45.1405 2.05192 44.9218 1.82275C44.7082 1.5988 44.4582 1.42171 44.1718 1.30192C43.8853 1.17692 43.5884 1.11963 43.2759 1.11963C42.9634 1.11963 42.6666 1.18213 42.3801 1.30713C42.0989 1.43213 41.8489 1.60921 41.6353 1.83317C41.4218 2.06234 41.2603 2.32275 41.1562 2.61963C41.052 2.9113 41.0103 3.21338 41.0312 3.52588C41.0155 5.79671 40.9999 8.05713 41.0155 10.3332C40.9843 10.6457 41.0207 10.9478 41.1197 11.2446C41.2187 11.5415 41.3749 11.8071 41.5884 12.0363C41.7968 12.2655 42.0468 12.4425 42.3332 12.5728C42.6197 12.6978 42.9166 12.755 43.2291 12.755ZM9.56761 61.3592L9.32282 61.3853C9.09886 61.4009 8.89053 61.4582 8.69261 61.5675L7.57282 62.2082C5.72907 63.2655 3.88532 64.3175 2.06761 65.4165C1.83844 65.5675 1.65094 65.7603 1.4999 65.9894C1.34886 66.2134 1.24469 66.4634 1.1874 66.729C1.13011 66.9946 1.1249 67.2655 1.17178 67.5363C1.21344 67.8071 1.30719 68.0571 1.45303 68.2915C1.64053 68.6509 1.90615 68.9373 2.2499 69.1509C2.59365 69.3644 2.97386 69.4738 3.38011 69.4842C3.71344 69.4842 4.02594 69.4061 4.32282 69.2498C6.41136 68.0988 8.55719 66.8644 10.8957 65.453C11.3176 65.1873 11.6041 64.8175 11.7551 64.3436C11.9062 63.8644 11.8905 63.3957 11.703 62.9373C11.5624 62.4634 11.2968 62.078 10.9009 61.7863C10.5051 61.4946 10.0624 61.354 9.56761 61.3592ZM82.8228 27.4373C82.7864 27.005 82.6509 26.6092 82.4114 26.2498C82.1718 25.8905 81.8645 25.6092 81.4843 25.4113C81.1093 25.229 80.7187 25.1457 80.302 25.1613C79.8853 25.1769 79.4999 25.2915 79.1457 25.505C77.1509 26.63 75.1562 27.7915 73.1718 28.9686C72.9114 29.1144 72.6822 29.3071 72.4947 29.5415C72.3072 29.7811 72.1718 30.0415 72.0884 30.3332C72.0051 30.6248 71.9791 30.9217 72.0155 31.2186C72.0468 31.5207 72.1405 31.8019 72.2864 32.0675C72.4791 32.4217 72.7499 32.7082 73.0937 32.9165C73.4426 33.1248 73.8228 33.229 74.2239 33.229C74.6457 33.2238 75.0364 33.1144 75.4009 32.9009C77.3853 31.7915 79.4895 30.5884 81.5259 29.3384C81.9062 29.0675 82.2134 28.7238 82.4374 28.3123C82.5207 28.1769 82.6041 28.0519 82.6874 27.9321L82.8645 27.7134L82.8228 27.4373ZM81.5259 65.2238C79.5416 64.0728 77.5572 62.9269 75.5676 61.7863C74.953 61.3957 74.2968 61.2915 73.5989 61.4686C73.0103 61.6353 72.5728 61.9842 72.2864 62.5259C72.1353 62.8019 72.0468 63.104 72.0207 63.4165C71.9947 63.7342 72.0312 64.0415 72.1249 64.3436C72.2239 64.6405 72.3749 64.9113 72.5832 65.1509C72.7916 65.3905 73.0416 65.578 73.3228 65.7134C75.2239 66.8228 77.1353 67.9321 79.0624 69.0415C79.3176 69.1769 79.5832 69.2863 79.8541 69.3696L80.1718 69.4842H80.3228C80.8489 69.4998 81.3228 69.354 81.7447 69.0363C82.1666 68.7238 82.4426 68.3071 82.578 67.7967C82.7291 67.2967 82.7082 66.8071 82.5103 66.3228C82.3124 65.8384 81.9843 65.4686 81.5259 65.2238ZM52.1822 88.9842H44.1041C43.8645 88.9842 43.6353 89.0311 43.4114 89.1196C43.1926 89.2134 42.9999 89.3436 42.828 89.5155C42.6614 89.6821 42.5312 89.88 42.4374 90.0988C42.3437 90.3228 42.302 90.5519 42.302 90.7915V98.953C42.302 99.1925 42.3437 99.4269 42.4374 99.6457C42.5312 99.8696 42.6614 100.062 42.828 100.234C42.9999 100.401 43.1926 100.531 43.4114 100.625C43.6353 100.719 43.8645 100.76 44.1041 100.76H52.1822C52.4218 100.76 52.6509 100.713 52.8697 100.62C53.0884 100.531 53.2812 100.396 53.4478 100.229C53.6197 100.057 53.7447 99.8644 53.8384 99.6457C53.927 99.4217 53.9739 99.1925 53.9739 98.953V90.7915C53.9739 90.5519 53.927 90.3228 53.8384 90.104C53.7447 89.88 53.6197 89.6873 53.4478 89.5155C53.2812 89.3488 53.0884 89.2186 52.8697 89.1248C52.6509 89.0311 52.4218 88.9842 52.1822 88.9842ZM65.6301 53.3071C64.677 55.8123 63.2499 58.0155 61.3541 59.9113C59.4322 61.7707 57.8384 63.8853 56.5676 66.2446C55.302 68.5988 54.4166 71.0936 53.9166 73.729C53.328 76.4686 53.0989 79.2759 52.7134 82.0519C52.6457 82.505 52.6457 82.9425 52.6041 83.4217H43.2551C43.2291 82.8644 43.203 82.3019 43.177 81.7811C43.177 81.7394 43.1457 81.6978 43.1457 81.6561C43.1457 81.6144 43.1614 81.5884 43.1614 81.5467C42.9687 77.9061 42.8332 75.1769 42.8332 73.7811C42.8593 73.13 42.6978 72.5311 42.3437 71.9894C41.8749 71.4061 41.2759 71.0259 40.552 70.8488C38.5364 70.1821 36.5989 69.3332 34.7447 68.3019C32.7082 67.2238 32.3489 67.1665 30.6405 68.7446C29.8384 69.4842 29.0051 70.1821 28.2655 70.8123C28.0051 71.0311 27.7447 71.2498 27.5155 71.453L24.2759 68.6196C24.6145 68.2082 24.9582 67.8123 25.2864 67.4269C26.1457 66.4165 26.9687 65.453 27.828 64.5259C28.2134 64.1092 28.4322 63.6196 28.4843 63.0519C28.5364 62.4842 28.4062 61.9634 28.0989 61.4842C27.2134 59.4998 26.3645 57.3748 25.5155 54.9946C25.4009 54.4582 25.1301 54.0207 24.7134 53.6769C24.2916 53.328 23.8072 53.1509 23.2603 53.1457C21.5259 53.0363 20.0624 52.9217 18.6041 52.7342C18.2447 52.6925 17.7134 52.3071 17.6978 52.1457C17.6249 51.203 17.5989 50.2655 17.6301 49.3228C17.6457 49.0207 17.6457 48.7186 17.6457 48.4165L19.328 48.255C20.7082 48.104 22.0207 47.979 23.3176 47.8853C23.8593 47.8696 24.3332 47.6873 24.7499 47.3384C25.1614 46.9894 25.4218 46.5519 25.5312 46.0207C26.3801 43.6405 27.1978 41.5571 28.0572 39.6665C28.3593 39.1873 28.4843 38.6613 28.4322 38.0988C28.3801 37.5311 28.1562 37.0415 27.7707 36.6248C26.9114 35.6405 26.078 34.6144 25.2864 33.63C24.9687 33.2603 24.6718 32.8905 24.3697 32.5311L27.3749 29.505C27.7343 29.7915 28.0989 30.0936 28.4582 30.3957C29.4009 31.1613 30.3541 31.9582 31.2864 32.7759C31.4947 32.979 31.7291 33.1405 31.9947 33.2603C32.2603 33.3748 32.5364 33.4478 32.828 33.4634C33.1145 33.4842 33.4009 33.453 33.677 33.3696C33.953 33.2863 34.2082 33.1561 34.4426 32.9842C36.4999 31.9009 38.6197 30.953 40.7968 30.1353C41.3801 30.005 41.8593 29.7082 42.2343 29.2446C42.6093 28.7811 42.802 28.255 42.8072 27.6561C42.8593 26.505 42.9843 25.3436 43.0937 24.203L43.2187 22.8488L43.2291 22.8332C58.1926 23.2342 71.5207 38.9113 65.6301 53.3071ZM43.1197 62.1978C43.0937 62.0467 43.078 61.8957 43.078 61.7446V38.9113C42.9114 38.8748 42.7551 38.8123 42.5989 38.7342C41.9322 38.88 41.2812 39.0832 40.6457 39.3436C40.0103 39.604 39.4009 39.9113 38.8176 40.2759C38.2343 40.6405 37.6874 41.0519 37.177 41.505C36.6666 41.9634 36.1978 42.4582 35.7707 42.9998C35.3437 43.5363 34.9634 44.104 34.6353 44.7082C34.302 45.3123 34.0259 45.9373 33.8072 46.5884C33.5832 47.2342 33.4166 47.9009 33.3072 48.578C33.1978 49.255 33.1509 49.9373 33.1562 50.6248C33.1614 51.3123 33.2291 51.9946 33.3541 52.6717C33.4791 53.3488 33.6562 54.005 33.8957 54.6509C34.1301 55.2967 34.4218 55.9165 34.7655 56.5103C35.1093 57.104 35.4999 57.6665 35.9374 58.1925C36.3749 58.7238 36.8541 59.2082 37.3749 59.6561C37.9009 60.0988 38.453 60.4998 39.0468 60.8488C39.6353 61.1978 40.2499 61.4946 40.8905 61.7394C41.5312 61.9842 42.1874 62.1717 42.8593 62.3071C42.9166 62.2915 42.9582 62.2498 43.0103 62.2394C43.0468 62.2238 43.0832 62.2134 43.1197 62.1978Z" fill="#7A57C2"/>
</g>
</svg>
