<svg 
 xmlns="http://www.w3.org/2000/svg"
 xmlns:xlink="http://www.w3.org/1999/xlink"
 width="391px" height="218px">
<path fill-rule="evenodd"  fill="rgb(151, 202, 73)"
 d="M3.000,163.000 C3.000,163.000 167.813,244.279 298.000,76.000 C298.000,76.000 223.221,111.048 190.000,65.000 C190.000,65.000 276.112,45.767 336.000,5.000 C336.000,5.000 345.701,-6.540 369.000,8.000 C392.299,22.540 391.533,19.300 389.000,42.000 C386.467,64.700 376.000,149.000 376.000,149.000 C376.000,149.000 342.188,144.146 341.000,119.000 L340.000,104.000 C340.000,104.000 263.095,215.809 152.000,217.000 C60.557,217.980 27.263,199.376 2.000,172.000 C2.000,172.000 -1.440,165.422 3.000,163.000 Z"/>
</svg>