<svg width="115" height="119" viewBox="0 0 115 119" fill="rgb(250, 245, 239)" xmlns="http://www.w3.org/2000/svg">
<path d="M111.688 13.7404H93.9564V2.95178C93.9564 1.33951 92.7161 0.0999965 91.1046 0.0999965H77.96C76.3477 0.0999965 75.1082 1.34035 75.1082 2.95178V13.7396L39.7682 13.7404V2.95175C39.7682 1.33949 38.5278 0.0999756 36.9164 0.0999756H23.8953C22.2831 0.0999756 21.0435 1.34033 21.0435 2.95175V13.7395L3.31198 13.7404C1.82425 13.7404 0.460205 14.9808 0.460205 16.5922V115.172C0.460205 116.784 1.70056 118.024 3.31198 118.024H111.688C113.176 118.024 114.54 116.784 114.54 115.172V16.5922C114.54 14.9799 113.176 13.7404 111.687 13.7404L111.688 13.7404ZM80.812 5.80444H88.2524V22.1729H80.812V5.80444ZM26.624 5.80444H34.0644V22.1729H26.624V5.80444ZM21.0442 19.3202V24.9C21.0442 26.5123 22.2846 27.7518 23.896 27.7518H37.0398C38.652 27.7518 39.8915 26.5114 39.8915 24.9L39.8924 19.3202H75.2324V24.9C75.2324 26.5123 76.4728 27.7518 78.0842 27.7518H91.228C92.8402 27.7518 94.0797 26.5114 94.0797 24.9V19.3202H108.96V33.9518H6.16352V19.3202H21.0442ZM6.16443 112.196V39.6562H108.836V112.196H6.16443Z" fill="rgb(250, 245, 239)"/>
<path d="M33.692 81.9399H20.3C18.6878 81.9399 17.4482 83.1803 17.4482 84.7917V98.0602C17.4482 99.6724 18.6886 100.912 20.3 100.912H33.5685C35.1807 100.912 36.4202 99.6716 36.4202 98.0602V84.6682C36.4202 83.1796 35.1799 81.9402 33.6922 81.9402L33.692 81.9399ZM30.8402 95.2075H23.1525L23.1516 87.5197H30.8394L30.8402 95.2075Z" fill="rgb(250, 245, 239)"/>
<path d="M64.0719 81.9399H50.6799C49.0676 81.9399 47.8281 83.1803 47.8281 84.7917V98.0602C47.8281 99.6724 49.0685 100.912 50.6799 100.912H63.9483C65.5606 100.912 66.8001 99.6716 66.8001 98.0602V84.6682C66.9238 83.1796 65.5598 81.9402 64.0721 81.9402L64.0719 81.9399ZM61.2201 95.2075H53.5323L53.5315 87.5197H61.2201L61.2201 95.2075Z" fill="rgb(250, 245, 239)"/>
<path d="M94.452 81.9399H81.06C79.4478 81.9399 78.2083 83.1803 78.2083 84.7917V98.0602C78.2083 99.6724 79.4486 100.912 81.06 100.912H94.3285C95.9407 100.912 97.1803 99.6716 97.1803 98.0602V84.6682C97.3048 83.1796 95.9408 81.9402 94.4522 81.9402L94.452 81.9399ZM91.6003 95.2075H83.9125V87.5197H91.6003V95.2075Z" fill="rgb(250, 245, 239)"/>
<path d="M33.692 51.312H20.3C18.6878 51.312 17.4482 52.5524 17.4482 54.1638V67.4322C17.4482 69.0445 18.6886 70.284 20.3 70.284H33.5685C35.1807 70.284 36.4202 69.0437 36.4202 67.4322V54.1638C36.4202 52.5515 35.1799 51.312 33.6922 51.312H33.692ZM30.8402 64.5796H23.1525V56.8918H30.8402V64.5796Z" fill="rgb(250, 245, 239)"/>
<path d="M64.0719 51.312H50.6799C49.0676 51.312 47.8281 52.5524 47.8281 54.1638V67.4322C47.8281 69.0445 49.0685 70.284 50.6799 70.284H63.9483C65.5606 70.284 66.8001 69.0437 66.8001 67.4322V54.1638C66.9238 52.5515 65.5598 51.312 64.0721 51.312H64.0719ZM61.2201 64.5796H53.5323V56.8918H61.2201V64.5796Z" fill="rgb(250, 245, 239)"/>
<path d="M94.452 51.312H81.06C79.4478 51.312 78.2083 52.5524 78.2083 54.1638V67.4322C78.2083 69.0445 79.4486 70.284 81.06 70.284H94.3285C95.9407 70.284 97.1803 69.0437 97.1803 67.4322V54.1638C97.3048 52.5515 95.9405 51.312 94.452 51.312ZM91.6003 64.5796H83.9125V56.8918H91.6003V64.5796Z" fill="rgb(250, 245, 239)"/>
</svg>
