<svg width="57" height="57" viewBox="0 0 57 57" fill="none" xmlns="http://www.w3.org/2000/svg">
<path d="M42.1406 41.6404C42.0365 41.6404 41.9375 41.6196 41.8385 41.5831L37.1146 39.8748C36.8854 39.7914 36.7188 39.6404 36.6146 39.4217C36.5104 39.2029 36.5052 38.9789 36.5885 38.755L48.2917 6.81228C48.4479 6.39561 48.6771 6.02061 48.9792 5.69249C49.2812 5.36436 49.6354 5.10915 50.0417 4.92165C50.4479 4.72895 50.875 4.62999 51.3229 4.60915C51.7708 4.58832 52.2031 4.65603 52.625 4.80707L52.6563 4.81749C53.0781 4.96853 53.4531 5.1977 53.7865 5.49457C54.1146 5.79665 54.375 6.15082 54.5625 6.55186C54.7552 6.95811 54.8594 7.37999 54.8802 7.8279C54.8958 8.27061 54.8281 8.7029 54.6771 9.11957L42.9688 41.0623C42.8281 41.4477 42.5521 41.6404 42.1458 41.6404H42.1406ZM38.5469 38.531L41.6146 39.6404L53.0156 8.52061C53.0885 8.3227 53.125 8.11436 53.1146 7.90082C53.1042 7.68728 53.0521 7.48415 52.9635 7.29145C52.875 7.09874 52.75 6.93207 52.5885 6.79145C52.4323 6.64561 52.2552 6.53624 52.0521 6.46332L52.0208 6.4529C51.8177 6.37999 51.6094 6.34874 51.3958 6.35915C51.1823 6.36436 50.9792 6.41645 50.7865 6.50499C50.5938 6.59353 50.4219 6.71853 50.276 6.87478C50.1302 7.03103 50.026 7.20811 49.9479 7.41124L38.5469 38.531Z" fill="white"/>
<mask id="mask0_547_233" style="mask-type:luminance" maskUnits="userSpaceOnUse" x="49" y="0" width="8" height="8">
<path d="M49.521 0H56.1877V7.75H49.521V0Z" fill="white"/>
</mask>
<g mask="url(#mask0_547_233)">
<path d="M53.5159 7.39076C53.4117 7.39076 53.3127 7.37514 53.2138 7.33868C52.9846 7.25534 52.818 7.1043 52.7138 6.88555C52.6148 6.6668 52.6044 6.44284 52.6877 6.21368L53.9013 2.90118C53.969 2.71368 53.969 2.53139 53.9013 2.34389C53.8544 2.21368 53.7711 2.12513 53.6409 2.07305C53.3752 1.97409 53.0367 2.18764 52.9117 2.5418L51.7034 5.83347C51.6357 6.03659 51.5055 6.19805 51.3232 6.30743C51.1357 6.4168 50.9377 6.45847 50.7242 6.42201C50.5107 6.38555 50.3336 6.28659 50.193 6.12514C50.0523 5.95847 49.9846 5.77097 49.9846 5.55743C49.9846 5.45326 50.0002 5.3543 50.0367 5.25534L51.2502 1.94284C51.7138 0.677218 53.0575 0.00013587 54.245 0.427219C54.87 0.656387 55.3023 1.07826 55.5367 1.69284C55.7763 2.2918 55.7815 2.89597 55.5575 3.50014L54.344 6.81264C54.2034 7.19805 53.9273 7.39076 53.5159 7.39076Z" fill="white"/>
</g>
<path d="M36.5417 49.6145C36.4115 49.6145 36.2917 49.5833 36.1719 49.5312C36.0573 49.4791 35.9583 49.4062 35.875 49.3072C35.7917 49.2135 35.7292 49.1041 35.6927 48.9791C35.6563 48.8593 35.651 48.7343 35.6667 48.6041C35.9896 46.4843 35.1198 42.2604 35.1094 42.2187C35.0313 41.8229 35.1563 41.5208 35.4948 41.302C36.5729 40.6145 37.224 38.9895 37.2344 38.9739C37.3177 38.75 37.4688 38.5885 37.6927 38.4895C37.9115 38.3906 38.1354 38.3802 38.3594 38.4635L40.0833 39.0885L41.8021 39.7083C42.0313 39.7916 42.1927 39.9374 42.2969 40.1562C42.401 40.3697 42.4167 40.5885 42.3385 40.8177C42.1823 41.276 41.8385 42.6927 42.1563 43.7083C42.276 44.0937 42.1771 44.4062 41.8594 44.6562C41.8281 44.6822 38.4271 47.3645 37.2969 49.1927C37.125 49.4739 36.875 49.6145 36.5417 49.6145ZM36.9427 42.4062C37.0938 43.1979 37.349 44.7291 37.4531 46.25C38.5156 45.151 39.7031 44.1458 40.3281 43.6302C40.1771 42.6979 40.3021 41.7395 40.4427 41.0833L38.5104 40.3802C38.1927 40.9739 37.6719 41.7864 36.9479 42.4062H36.9427Z" fill="white"/>
<mask id="mask1_547_233" style="mask-type:luminance" maskUnits="userSpaceOnUse" x="46" y="7" width="11" height="17">
<path d="M46.8542 7.75H56.797V23.75H46.8542V7.75Z" fill="white"/>
</mask>
<g mask="url(#mask1_547_233)">
<path d="M51.7501 23.505C51.6042 23.505 51.4688 23.4738 51.3438 23.4061C51.2188 23.3384 51.1094 23.2498 51.0313 23.13C50.948 23.0155 50.8959 22.8852 50.8803 22.7446C50.8594 22.604 50.8751 22.4634 50.9219 22.3332L54.7448 11.9061L48.2292 9.55192C47.9948 9.46858 47.8282 9.32275 47.724 9.09879C47.6198 8.88004 47.6094 8.65608 47.6928 8.42692C47.7761 8.19775 47.9271 8.03108 48.1511 7.93212C48.3751 7.82796 48.599 7.81754 48.8282 7.90608L56.1719 10.5623C56.4011 10.6405 56.5678 10.7915 56.6719 11.0102C56.7761 11.2342 56.7865 11.453 56.7032 11.6821L52.5782 22.9269C52.4376 23.3123 52.1615 23.505 51.7501 23.505Z" fill="white"/>
</g>
<mask id="mask2_547_233" style="mask-type:luminance" maskUnits="userSpaceOnUse" x="0" y="0" width="47" height="57">
<path d="M0 0H46.8542V56.7917H0V0Z" fill="white"/>
</mask>
<g mask="url(#mask2_547_233)">
<path d="M45.7605 56.7915H0.890706C0.645914 56.7915 0.437581 56.7082 0.265706 56.5363C0.0938317 56.3644 0.010498 56.1613 0.010498 55.9165V1.1665C0.010498 0.92692 0.0938317 0.718587 0.265706 0.551921C0.437581 0.380046 0.645914 0.291504 0.890706 0.291504H45.7605C46.0053 0.291504 46.2136 0.380046 46.3855 0.551921C46.5574 0.718587 46.6459 0.92692 46.6459 1.1665V16.2759C46.6459 16.5207 46.5574 16.7238 46.3855 16.8957C46.2136 17.0675 46.0053 17.1509 45.7605 17.1509C45.5209 17.1509 45.3126 17.0675 45.1407 16.8957C44.9688 16.7238 44.8803 16.5207 44.8803 16.2759V2.04671H1.77091V55.0415H44.8803V30.88C44.8803 30.6405 44.9688 30.4321 45.1407 30.2655C45.3126 30.0936 45.5209 30.005 45.7605 30.005C46.0053 30.005 46.2136 30.0936 46.3855 30.2655C46.5574 30.4321 46.6459 30.6405 46.6459 30.88V55.9165C46.6459 56.1613 46.5574 56.3644 46.3855 56.5363C46.2136 56.7082 46.0053 56.7915 45.7605 56.7915Z" fill="white"/>
</g>
<path d="M16.2814 17.4582H5.9637C5.71891 17.4582 5.51058 17.3748 5.3387 17.203C5.16683 17.0311 5.0835 16.828 5.0835 16.5832V6.33838C5.0835 6.0988 5.16683 5.89046 5.3387 5.71859C5.51058 5.54671 5.71891 5.46338 5.9637 5.46338H16.2814C16.5262 5.46338 16.7293 5.54671 16.9064 5.71859C17.0783 5.89046 17.1616 6.0988 17.1616 6.33838V16.5832C17.1616 16.828 17.0783 17.0311 16.9064 17.203C16.7293 17.3748 16.5262 17.4582 16.2814 17.4582ZM6.84391 15.7082H15.396V7.21338H6.84391V15.7082Z" fill="white"/>
<path d="M16.2814 34.5417H5.9637C5.71891 34.5417 5.51058 34.4583 5.3387 34.2865C5.16683 34.1146 5.0835 33.9063 5.0835 33.6667V23.4219C5.0835 23.1771 5.16683 22.974 5.3387 22.8021C5.51058 22.6302 5.71891 22.5469 5.9637 22.5469H16.2814C16.5262 22.5469 16.7293 22.6302 16.9064 22.8021C17.0783 22.974 17.1616 23.1771 17.1616 23.4219V33.6667C17.1616 33.9063 17.0783 34.1146 16.9064 34.2865C16.7293 34.4583 16.5262 34.5417 16.2814 34.5417ZM6.84391 32.7917H15.396V24.2969H6.84391V32.7917Z" fill="white"/>
<path d="M16.2814 51.625H5.9637C5.71891 51.625 5.51058 51.5365 5.3387 51.3698C5.16683 51.1979 5.0835 50.9896 5.0835 50.75V40.5C5.0835 40.2604 5.16683 40.0521 5.3387 39.8802C5.51058 39.7135 5.71891 39.625 5.9637 39.625H16.2814C16.5262 39.625 16.7293 39.7135 16.9064 39.8802C17.0783 40.0521 17.1616 40.2604 17.1616 40.5V50.75C17.1616 50.9896 17.0783 51.1979 16.9064 51.3698C16.7293 51.5365 16.5262 51.625 16.2814 51.625ZM6.84391 49.875H15.396V41.3802H6.84391V49.875Z" fill="white"/>
<path d="M41.2188 9.67171H23.3282C23.0834 9.67171 22.8751 9.58317 22.7032 9.4113C22.5313 9.24463 22.448 9.0363 22.448 8.79671C22.448 8.55192 22.5313 8.34359 22.7032 8.17692C22.8751 8.00505 23.0834 7.9165 23.3282 7.9165H41.2188C41.4636 7.9165 41.672 8.00505 41.8438 8.17692C42.0157 8.34359 42.099 8.55192 42.099 8.79671C42.099 9.0363 42.0157 9.24463 41.8438 9.4113C41.672 9.58317 41.4636 9.67171 41.2188 9.67171Z" fill="white"/>
<path d="M41.2188 15.0052H23.3282C23.0834 15.0052 22.8751 14.9167 22.7032 14.75C22.5313 14.5781 22.448 14.3698 22.448 14.1302C22.448 13.8854 22.5313 13.6771 22.7032 13.5104C22.8751 13.3385 23.0834 13.25 23.3282 13.25H41.2188C41.4636 13.25 41.672 13.3385 41.8438 13.5104C42.0157 13.6771 42.099 13.8854 42.099 14.1302C42.099 14.3698 42.0157 14.5781 41.8438 14.75C41.672 14.9167 41.4636 15.0052 41.2188 15.0052Z" fill="white"/>
<path d="M41.2188 26.75H23.3282C23.0834 26.75 22.8751 26.6667 22.7032 26.4948C22.5313 26.3229 22.448 26.1198 22.448 25.875C22.448 25.6354 22.5313 25.4271 22.7032 25.2552C22.8751 25.0885 23.0834 25 23.3282 25H41.2188C41.4636 25 41.672 25.0885 41.8438 25.2552C42.0157 25.4271 42.099 25.6354 42.099 25.875C42.099 26.1198 42.0157 26.3229 41.8438 26.4948C41.672 26.6667 41.4636 26.75 41.2188 26.75Z" fill="white"/>
<path d="M40.2917 32.0885H23.3282C23.0834 32.0885 22.8751 31.9999 22.7032 31.828C22.5313 31.6562 22.448 31.453 22.448 31.2083C22.448 30.9687 22.5313 30.7603 22.7032 30.5885C22.8751 30.4218 23.0834 30.3333 23.3282 30.3333H40.2917C40.5313 30.3333 40.7397 30.4218 40.9115 30.5885C41.0834 30.7603 41.172 30.9687 41.172 31.2083C41.172 31.453 41.0834 31.6562 40.9115 31.828C40.7397 31.9999 40.5313 32.0885 40.2917 32.0885Z" fill="white"/>
<path d="M36.1511 43.8333H23.3282C23.0834 43.8333 22.8751 43.7499 22.7032 43.578C22.5313 43.4062 22.448 43.203 22.448 42.9583C22.448 42.7187 22.5313 42.5103 22.7032 42.3385C22.8751 42.1666 23.0834 42.0833 23.3282 42.0833H36.1511C36.3907 42.0833 36.599 42.1666 36.7709 42.3385C36.9428 42.5103 37.0313 42.7187 37.0313 42.9583C37.0313 43.203 36.9428 43.4062 36.7709 43.578C36.599 43.7499 36.3907 43.8333 36.1511 43.8333Z" fill="white"/>
<path d="M36.5938 49.1665H23.3282C23.0834 49.1665 22.8751 49.0832 22.7032 48.9113C22.5313 48.7394 22.448 48.5363 22.448 48.2915C22.448 48.0519 22.5313 47.8436 22.7032 47.6717C22.8751 47.4998 23.0834 47.4165 23.3282 47.4165H36.5938C36.8386 47.4165 37.047 47.4998 37.2188 47.6717C37.3907 47.8436 37.4792 48.0519 37.4792 48.2915C37.4792 48.5363 37.3907 48.7394 37.2188 48.9113C37.047 49.0832 36.8386 49.1665 36.5938 49.1665Z" fill="white"/>
</svg>
