<svg width="61" height="58" viewBox="0 0 61 58" fill="none" xmlns="http://www.w3.org/2000/svg">
<path fill-rule="evenodd" clip-rule="evenodd" d="M1.37508 19.1823C1.37508 19.1823 3.89071 21.0156 5.948 20.5573C5.948 20.5573 8.80217 18.4948 10.2865 18.375C10.2865 18.375 13.8334 20.4427 17.1459 18.6094C17.1459 18.6094 18.5209 20.3281 18.5209 22.5052C18.4063 24.5677 15.6615 26.1719 15.6615 29.3854C15.7761 32.7083 17.2605 36.8385 18.2918 39.7031C19.2032 42.6823 21.2605 54.3802 7.54696 51.2813C15.3178 55.1823 22.974 50.4792 23.547 41.4219C23.6615 38.099 25.7188 39.3594 25.8334 41.9948C26.6355 64.2396 -9.14054 62.0573 2.63029 35.4583C4.45842 31.3333 3.89071 26.974 2.51571 25.2552C1.14592 23.5365 0.91675 19.526 1.37508 19.1823ZM11.7761 20.2135C12.1199 20.3281 12.3438 20.6719 12.3438 21.0156C12.3438 21.474 11.8907 21.8177 11.4324 21.8177C10.974 21.8177 10.6303 21.474 10.6303 21.0156C10.6303 20.7865 10.7449 20.5573 10.974 20.3281C10.974 20.5573 11.2032 20.6719 11.3178 20.6719C11.6615 20.6719 11.7761 20.5573 11.7761 20.3281C11.7761 20.2135 11.7761 20.2135 11.7761 20.2135Z" fill="white"/>
<path fill-rule="evenodd" clip-rule="evenodd" d="M45.8334 51.9688C36.1199 52.7708 30.0626 45.5521 29.1459 35.4583C28.6928 30.875 25.4897 33.5104 25.7188 36.1511C26.5209 50.25 36.6928 57.474 48.0053 57.1302C68.2397 56.5573 59.4376 21.9323 49.8334 12.3021C49.8334 12.3021 47.5522 16.4271 44.2345 17C40.8074 17.4583 37.2605 14.25 36.922 7.02605C37.8334 12.9896 43.547 19.6406 47.7761 12.5313C49.3803 9.78126 49.4949 6.56772 47.8907 5.19272C46.4063 3.81772 39.0938 -0.656238 35.2032 0.260429C31.3178 1.18231 27.6615 4.27605 27.2032 6.22397C26.7501 8.40105 27.2032 9.31772 26.5209 10.9271C25.8334 12.5313 24.0053 14.7083 22.2917 16.3125C24.5782 21.5886 26.7501 21.8177 31.8907 20.6719C34.0626 20.2136 38.5209 22.6198 37.4897 29.6146C37.1511 31.6771 36.2345 33.5104 35.4324 35.3438C31.6615 43.9427 37.1511 50.4792 45.8334 51.9688ZM30.0626 8.0573C30.4063 8.28647 30.7501 8.63022 30.7501 9.08855C30.7501 9.78126 30.1772 10.2396 29.6042 10.2396C28.9167 10.2396 28.4636 9.78126 28.4636 9.08855C28.4636 8.74481 28.6928 8.40105 28.9167 8.28647C28.9167 8.51564 29.1459 8.7448 29.4897 8.7448C29.8334 8.7448 30.0626 8.40105 30.0626 8.17189C30.0626 8.05731 30.0626 8.0573 30.0626 8.0573Z" fill="white"/>
</svg>
