<svg width="68" height="66" viewBox="0 0 68 66" fill="none" xmlns="http://www.w3.org/2000/svg">
<mask id="mask0_547_231" style="mask-type:luminance" maskUnits="userSpaceOnUse" x="0" y="0" width="68" height="46">
<path d="M0.104248 0.333374H67.8647V45.6667H0.104248V0.333374Z" fill="white"/>
</mask>
<g mask="url(#mask0_547_231)">
<path d="M22.8177 39.2449L27.6563 20.573C27.9167 19.5782 28.8438 18.7917 29.8646 18.9324C30.8958 18.9688 31.7604 19.7188 31.9479 20.7292L36.4063 45.1511L38.8854 40.4167C39.2656 39.6928 40.0156 39.2397 40.8385 39.2397H58.4427L63.0625 34.1407C63.224 33.9584 63.349 33.7553 63.4427 33.5417C65.9167 29.3542 67.7917 25.724 67.7917 20.9272C67.7917 10.573 59.2031 1.83341 49.0417 1.83341C42.9323 1.83341 37.4531 4.57821 33.9948 9.18758C30.4896 4.44279 24.9115 1.52612 18.9375 1.52612C8.77083 1.52612 0.1875 10.4272 0.1875 20.974C0.1875 25.7345 1.97396 29.2032 4.51563 33.5157C4.60937 33.7397 4.74479 33.948 4.91146 34.1407L9.54167 39.2397L22.8177 39.2449Z" fill="white"/>
</g>
<mask id="mask1_547_231" style="mask-type:luminance" maskUnits="userSpaceOnUse" x="12" y="31" width="43" height="35">
<path d="M12.3333 31H54.9999V65.151H12.3333V31Z" fill="white"/>
</mask>
<g mask="url(#mask1_547_231)">
<path d="M42.1717 43.6198L37.354 52.8437C36.9686 53.5729 36.2134 54.0208 35.4009 54.0208C35.2863 54.0208 35.1769 54.0104 35.0728 53.9895C34.1405 53.8541 33.4061 53.1406 33.2394 52.2187L29.4165 31.3073L26.6509 41.9687C26.4009 42.9375 25.5259 43.6145 24.5259 43.6145H13.5103L32.3905 64.4166C32.8123 64.875 33.4061 65.1302 34.0259 65.1302C34.6509 65.1302 35.2446 64.875 35.6561 64.4114L54.4842 43.6145L42.1717 43.6198Z" fill="white"/>
</g>
</svg>
