<svg width="63" height="63" viewBox="0 0 63 63" fill="none" xmlns="http://www.w3.org/2000/svg">
<mask id="mask0_547_232" style="mask-type:luminance" maskUnits="userSpaceOnUse" x="0" y="0" width="63" height="63">
<path d="M0.239502 0.78125H62.0208V62.5573H0.239502V0.78125Z" fill="white"/>
</mask>
<g mask="url(#mask0_547_232)">
<path d="M31.0625 0.724121C30.0521 0.724121 29.0417 0.776204 28.0365 0.875163C27.0313 0.974121 26.0313 1.11996 25.0365 1.31787C24.0469 1.51579 23.0677 1.76058 22.099 2.05745C21.1302 2.34912 20.1823 2.68766 19.2448 3.07308C18.3125 3.4637 17.401 3.896 16.5052 4.36995C15.6146 4.84912 14.75 5.36475 13.9063 5.92725C13.0677 6.48975 12.2552 7.09391 11.474 7.73454C10.6927 8.37516 9.94271 9.05225 9.22917 9.771C8.51563 10.4845 7.83854 11.2345 7.19271 12.0158C6.55208 12.797 5.95313 13.6043 5.39063 14.4481C4.82813 15.2866 4.30729 16.1564 3.83333 17.047C3.35417 17.9377 2.92187 18.8491 2.53646 19.7866C2.15104 20.7189 1.80729 21.672 1.51563 22.6408C1.22396 23.6043 0.979166 24.5835 0.78125 25.5783C0.583333 26.5679 0.432292 27.5679 0.333333 28.5731C0.234375 29.5835 0.1875 30.5887 0.1875 31.5991C0.1875 32.6147 0.234375 33.62 0.333333 34.6304C0.432292 35.6356 0.583333 36.6356 0.78125 37.6252C0.979166 38.6147 1.22396 39.5991 1.51563 40.5627C1.80729 41.5314 2.15104 42.4845 2.53646 43.4168C2.92187 44.3491 3.35417 45.2658 3.83333 46.1564C4.30729 47.047 4.82813 47.9168 5.39063 48.7554C5.95313 49.5939 6.55208 50.4064 7.19271 51.1877C7.83854 51.9689 8.51563 52.7189 9.22917 53.4325C9.94271 54.1512 10.6927 54.8283 11.474 55.4689C12.2552 56.1095 13.0677 56.7137 13.9063 57.2762C14.75 57.8335 15.6146 58.3543 16.5052 58.8335C17.401 59.3075 18.3125 59.7397 19.2448 60.1252C20.1823 60.5158 21.1302 60.8543 22.099 61.146C23.0677 61.4429 24.0469 61.6877 25.0365 61.8856C26.0313 62.0835 27.0313 62.2293 28.0365 62.3283C29.0417 62.4272 30.0521 62.4793 31.0625 62.4793C32.0729 62.4793 33.0833 62.4272 34.0885 62.3283C35.0938 62.2293 36.0938 62.0835 37.0885 61.8856C38.0781 61.6877 39.0573 61.4429 40.026 61.146C40.9948 60.8543 41.9427 60.5158 42.8802 60.1252C43.8125 59.7397 44.724 59.3075 45.6198 58.8335C46.5104 58.3543 47.375 57.8335 48.2188 57.2762C49.0573 56.7137 49.8698 56.1095 50.651 55.4689C51.4323 54.8283 52.1823 54.1512 52.8958 53.4325C53.6094 52.7189 54.2865 51.9689 54.9323 51.1877C55.5729 50.4064 56.1719 49.5939 56.7344 48.7554C57.2969 47.9168 57.8177 47.047 58.2917 46.1564C58.7708 45.2658 59.2031 44.3491 59.5885 43.4168C59.974 42.4845 60.3177 41.5314 60.6094 40.5627C60.901 39.5991 61.1458 38.6147 61.3438 37.6252C61.5417 36.6356 61.6927 35.6356 61.7917 34.6304C61.8906 33.62 61.9375 32.6147 61.9375 31.5991C61.9375 30.5887 61.8854 29.5835 61.7865 28.5783C61.6875 27.5679 61.5365 26.5731 61.3385 25.5783C61.1406 24.5887 60.8958 23.6095 60.6042 22.6408C60.3073 21.6772 59.9688 20.7241 59.5781 19.7918C59.1927 18.8595 58.7604 17.9429 58.2813 17.0522C57.8073 16.1616 57.2865 15.297 56.724 14.4533C56.1615 13.6147 55.5625 12.8022 54.9219 12.021C54.276 11.2397 53.599 10.495 52.8854 9.7762C52.1719 9.06266 51.4219 8.38558 50.6406 7.74495C49.8594 7.10433 49.0469 6.50016 48.2083 5.93766C47.3698 5.37516 46.5 4.85954 45.6094 4.38037C44.7188 3.90641 43.8073 3.47412 42.875 3.0835C41.9375 2.69808 40.9896 2.35433 40.0208 2.06266C39.0521 1.771 38.0729 1.521 37.0833 1.32308C36.0938 1.12516 35.0938 0.979329 34.0885 0.875163C33.0833 0.776204 32.0729 0.724121 31.0625 0.724121ZM54.8073 32.5731H59.1354C59.026 35.8387 58.3646 38.995 57.151 42.0314C55.9323 45.0679 54.2344 47.8075 52.0573 50.245L48.8281 47.0158C48.6979 46.8856 48.5469 46.7866 48.3802 46.7189C48.2135 46.646 48.0365 46.6147 47.8542 46.6147C47.6719 46.6147 47.4948 46.646 47.3281 46.7189C47.1563 46.7866 47.0104 46.8856 46.8802 47.0158C46.75 47.146 46.651 47.2918 46.5833 47.4637C46.5156 47.6304 46.4792 47.8075 46.4792 47.9897C46.4792 48.172 46.5104 48.3439 46.5833 48.5158C46.651 48.6825 46.75 48.8335 46.8802 48.9585L50.1354 52.2137C47.7135 54.4585 44.9844 56.2189 41.9427 57.5002C38.901 58.7762 35.7344 59.5002 32.4375 59.6564V54.9429C32.4375 54.7606 32.401 54.5835 32.3333 54.4168C32.2656 54.245 32.1667 54.0991 32.0365 53.9689C31.9063 53.8387 31.7552 53.7397 31.5885 53.672C31.4219 53.5991 31.2448 53.5679 31.0625 53.5679C30.8802 53.5679 30.7031 53.5991 30.5365 53.672C30.3698 53.7397 30.2188 53.8387 30.0885 53.9689C29.9583 54.0991 29.8594 54.245 29.7917 54.4168C29.724 54.5835 29.6875 54.7606 29.6875 54.9429V59.6564C26.3906 59.5002 23.224 58.7762 20.1823 57.5002C17.1406 56.2189 14.4115 54.4585 11.9896 52.2137L15.2448 48.9585C15.375 48.8335 15.474 48.6825 15.5417 48.5158C15.6146 48.3439 15.6458 48.172 15.6458 47.9897C15.6458 47.8075 15.6146 47.6304 15.5417 47.4637C15.474 47.2918 15.375 47.146 15.2448 47.0158C15.1146 46.8856 14.9688 46.7866 14.7969 46.7189C14.6302 46.646 14.4531 46.6147 14.2708 46.6147C14.0885 46.6147 13.9167 46.646 13.7448 46.7189C13.5781 46.7866 13.4271 46.8856 13.2969 47.0158L10.0677 50.245C7.89063 47.8075 6.19271 45.0679 4.97917 42.0314C3.76042 38.995 3.09896 35.8387 2.98958 32.5731H7.31771C7.5 32.5731 7.67708 32.5366 7.84375 32.4689C8.01042 32.396 8.16146 32.297 8.29167 32.1668C8.41667 32.0418 8.51563 31.8908 8.58854 31.7241C8.65625 31.5522 8.69271 31.3804 8.69271 31.1981C8.69271 31.0158 8.65625 30.8387 8.58854 30.6668C8.51563 30.5002 8.41667 30.3543 8.29167 30.2241C8.16146 30.0939 8.01042 29.995 7.84375 29.922C7.67708 29.8543 7.5 29.8179 7.31771 29.8179H3.03125C3.22917 26.5939 3.96875 23.5002 5.24479 20.5314C6.51563 17.5627 8.25521 14.896 10.4531 12.5314L13.2969 15.3804C13.4271 15.5054 13.5781 15.6043 13.7448 15.6772C13.9167 15.745 14.0885 15.7814 14.2708 15.7814C14.4531 15.7814 14.6302 15.745 14.7969 15.6772C14.9688 15.6043 15.1146 15.5054 15.2448 15.3804C15.375 15.2502 15.474 15.0991 15.5417 14.9325C15.6146 14.7658 15.6458 14.5887 15.6458 14.4064C15.6458 14.2241 15.6146 14.047 15.5417 13.8804C15.474 13.7085 15.375 13.5627 15.2448 13.4325L12.4167 10.6043C14.8073 8.47412 17.4844 6.80225 20.4479 5.59391C23.4115 4.38037 26.4896 3.69808 29.6875 3.54704V7.44808C29.6875 7.63037 29.724 7.80745 29.7917 7.97933C29.8594 8.146 29.9583 8.29183 30.0885 8.42204C30.2188 8.55225 30.3698 8.6512 30.5365 8.72412C30.7031 8.79183 30.8802 8.82829 31.0625 8.82829C31.2448 8.82829 31.4219 8.79183 31.5885 8.72412C31.7552 8.6512 31.9063 8.55225 32.0365 8.42204C32.1667 8.29183 32.2656 8.146 32.3333 7.97933C32.401 7.80745 32.4375 7.63037 32.4375 7.44808V3.54704C35.6354 3.69808 38.7135 4.38037 41.6771 5.59391C44.6406 6.80225 47.3177 8.47412 49.7083 10.6043L46.8802 13.4325C46.75 13.5627 46.651 13.7085 46.5833 13.8804C46.5104 14.047 46.474 14.2241 46.474 14.4064C46.474 14.5887 46.5104 14.7658 46.5833 14.9325C46.651 15.0991 46.75 15.2502 46.8802 15.3804C47.0104 15.5106 47.1563 15.6095 47.3281 15.6772C47.4948 15.745 47.6719 15.7814 47.8542 15.7814C48.0365 15.7814 48.2135 15.745 48.3802 15.6772C48.5469 15.6095 48.6979 15.5054 48.8281 15.3804L51.6719 12.5314C53.8698 14.896 55.6094 17.5627 56.8802 20.5314C58.1563 23.5002 58.8958 26.5939 59.099 29.8179H54.8073C54.625 29.8179 54.4479 29.8543 54.2813 29.922C54.1146 29.995 53.9635 30.0939 53.8333 30.2241C53.7083 30.3543 53.6042 30.5002 53.5365 30.6668C53.4688 30.8387 53.4323 31.0158 53.4323 31.1981C53.4323 31.3804 53.4688 31.5522 53.5365 31.7241C53.6042 31.8908 53.7083 32.0418 53.8333 32.1668C53.9635 32.297 54.1146 32.396 54.2813 32.4689C54.4479 32.5366 54.625 32.5731 54.8073 32.5731Z" fill="white"/>
</g>
<path d="M31.6406 30.4532L27.3698 14.2344C27.3229 14.0573 27.2448 13.8959 27.1354 13.75C27.0208 13.6042 26.8906 13.4844 26.7291 13.3907C26.5729 13.3021 26.4062 13.2396 26.2239 13.2188C26.0416 13.1927 25.8646 13.2032 25.6875 13.25C25.5104 13.2969 25.3489 13.375 25.2031 13.4844C25.0573 13.599 24.9375 13.7292 24.8489 13.8907C24.7552 14.0469 24.6979 14.2136 24.6719 14.3959C24.651 14.5782 24.6614 14.7552 24.7083 14.9323L29.0833 31.5469C29.151 31.8073 29.2864 32.0261 29.4844 32.2084L38.2396 40.2344C38.3698 40.3594 38.526 40.448 38.6979 40.5105C38.8698 40.573 39.0469 40.6042 39.2291 40.5938C39.4114 40.5834 39.5833 40.5417 39.75 40.4636C39.9114 40.3907 40.0573 40.2813 40.1823 40.1511C40.3021 40.0157 40.3958 39.8594 40.4583 39.6875C40.5208 39.5209 40.5469 39.3438 40.5416 39.1615C40.5312 38.9792 40.4896 38.8021 40.4166 38.6407C40.3385 38.474 40.2291 38.3282 40.0989 38.2032L31.6406 30.4532Z" fill="white"/>
</svg>
