<svg width="60" height="69" viewBox="0 0 60 69" fill="none" xmlns="http://www.w3.org/2000/svg">
<mask id="mask0_547_197" style="mask-type:luminance" maskUnits="userSpaceOnUse" x="0" y="0" width="60" height="69">
<path d="M0.609375 0.270996H59.401V68.0314H0.609375V0.270996Z" fill="white"/>
</mask>
<g mask="url(#mask0_547_197)">
<mask id="mask1_547_197" style="mask-type:luminance" maskUnits="userSpaceOnUse" x="0" y="0" width="97" height="69">
<path d="M76.3074 33.7606C77.2709 34.9689 77.5105 36.62 77.5365 37.8231C76.3699 37.5314 74.8178 36.9325 73.8595 35.7241C72.8959 34.521 72.6563 32.8648 72.6303 31.6616C73.7918 31.9533 75.349 32.5522 76.3074 33.7606ZM53.8907 39.4585L49.2345 41.797L49.7553 41.8856C51.7865 42.2241 53.448 43.7293 54.0053 45.6981C54.5522 45.2398 55.1824 44.8752 55.8803 44.62C56.5782 44.37 57.2865 44.2502 57.9949 44.2502C59.4063 44.2502 60.7865 44.7398 61.922 45.6877L62.1303 45.8648C62.6772 43.6304 63.7657 41.5783 65.2709 39.8231L62.9949 39.3127C61.0209 38.8752 59.6459 37.1512 59.6459 35.1252C59.6459 32.8283 60.2709 30.5731 61.4428 28.6043L62.3699 27.0575H60.6615L58.1303 30.2345C56.9168 31.7606 56.2449 33.6773 56.2449 35.6356C56.2449 37.2658 55.3438 38.7293 53.8907 39.4585ZM30.297 32.8543C30.1667 34.0575 30.1615 34.87 30.1615 34.9377C30.1615 35.8022 30.8595 36.5106 31.724 36.5158C31.7292 36.5158 31.7292 36.5158 31.7345 36.5158C32.5938 36.5158 33.297 35.8127 33.3022 34.9429C33.3022 34.9168 33.3126 34.1043 33.448 32.9272C35.1615 31.5783 37.2657 30.8439 39.4532 30.8439C44.0678 30.8439 47.9428 34.0887 48.9324 38.422L43.5105 41.146C42.9063 41.4481 42.5626 42.1148 42.6615 42.7866C42.7501 43.3804 43.1667 43.8648 43.7188 44.047C42.1667 46.2293 41.3386 48.8179 41.3386 51.6148C41.3386 54.1148 41.9792 56.4741 43.1199 58.5731H20.4167C19.5313 57.2814 18.6563 55.6356 17.8438 53.6981C17.1251 51.9793 16.5313 50.2241 16.0522 48.547L21.9324 31.1616C22.7188 30.9533 23.5365 30.8439 24.3855 30.8439C26.5365 30.8439 28.6042 31.5522 30.297 32.8543ZM29.8907 37.245C29.2813 36.6304 28.2865 36.6304 27.672 37.245C27.0574 37.8595 27.0574 38.8595 27.672 39.4741C28.8438 40.6512 30.3803 41.2398 31.922 41.2398C33.4584 41.2398 35.0001 40.6512 36.172 39.4741C36.7813 38.8595 36.7813 37.8595 36.172 37.245C35.5574 36.6304 34.5626 36.6304 33.948 37.245C32.8334 38.37 31.0105 38.37 29.8907 37.245ZM93.1251 49.12C93.1251 52.9325 91.0938 56.3335 87.922 58.5731H70.0782C66.9063 56.3335 64.8803 52.9325 64.8803 49.12C64.8803 44.547 67.8022 40.5575 72.1147 38.4637C74.7605 40.9741 78.7345 41.2293 78.9168 41.2398C78.9428 41.2398 78.974 41.2398 79.0053 41.2398C79.7657 41.2398 80.422 40.6877 80.5522 39.9273C80.5626 39.8595 80.6563 39.2554 80.6772 38.3595C80.724 37.9741 80.8022 37.5158 80.9115 37.021C87.8022 37.8335 93.1251 42.9481 93.1251 49.12ZM69.5886 50.6981C69.5886 49.8283 68.8855 49.12 68.0209 49.12C67.1511 49.12 66.448 49.8283 66.448 50.6981C66.448 51.5679 67.1563 52.271 68.0209 52.271C68.8855 52.271 69.5886 51.5679 69.5886 50.6981ZM72.7293 45.9689C73.5938 45.9689 74.297 45.2658 74.297 44.3908C74.297 43.521 73.5938 42.8179 72.7293 42.8179C71.8595 42.8179 71.1563 43.521 71.1563 44.3908C71.1563 45.2658 71.8647 45.9689 72.7293 45.9689ZM75.8699 53.8491C75.8699 52.9793 75.1668 52.271 74.297 52.271C73.4272 52.271 72.7293 52.9793 72.7293 53.8491C72.7293 54.7189 73.4324 55.422 74.297 55.422C75.1668 55.422 75.8699 54.7189 75.8699 53.8491ZM80.5782 47.547C80.5782 46.672 79.8751 45.9689 79.0053 45.9689C78.1355 45.9689 77.4376 46.672 77.4376 47.547C77.4376 48.4168 78.1407 49.12 79.0053 49.12C79.8751 49.12 80.5782 48.4168 80.5782 47.547ZM83.7136 53.8491C83.7136 52.9793 83.0105 52.271 82.1459 52.271C81.2761 52.271 80.573 52.9793 80.573 53.8491C80.573 54.7189 81.2761 55.422 82.1459 55.422C83.0105 55.422 83.7136 54.7189 83.7136 53.8491ZM85.2865 44.3908C86.1511 44.3908 86.8543 43.6877 86.8543 42.8179C86.8543 41.9481 86.1511 41.2398 85.2865 41.2398H85.2813C84.4167 41.2398 83.7136 41.9481 83.7136 42.8179C83.7136 43.6877 84.4168 44.3908 85.2865 44.3908ZM88.422 50.6981C88.422 49.8283 87.7188 49.12 86.8543 49.12C85.9845 49.12 85.2813 49.8283 85.2813 50.6981C85.2813 51.5679 85.9845 52.271 86.8543 52.271C87.7188 52.271 88.422 51.5679 88.422 50.6981ZM59.9115 48.1095C59.0782 47.4116 57.9688 47.2189 56.9428 47.5887C55.9324 47.9533 55.2397 48.7606 55.0417 49.8075C54.9949 50.0575 54.9584 50.3231 54.9324 50.5939C54.849 51.37 54.2188 51.9689 53.4428 52.0054C53.4167 52.0106 53.3959 52.0106 53.3699 52.0106C52.6251 52.0106 51.9792 51.4845 51.8282 50.745L51.0313 46.7345C50.8542 45.8439 50.1355 45.1408 49.2397 44.995L47.2813 44.6668C45.4428 46.5366 44.474 48.9116 44.474 51.6148C44.474 54.1877 45.349 56.5783 46.8334 58.5731H65.4063C63.224 56.0939 61.8803 53.0106 61.7501 49.6512L59.9115 48.1095ZM14.3855 53.4845L12.6615 58.5731H16.724C16.047 57.37 15.4532 56.1148 14.948 54.9168C14.7553 54.4481 14.5678 53.9689 14.3855 53.4845ZM22.4636 17.172C24.8386 15.3491 25.8386 12.1877 26.2345 10.3179C24.9636 10.245 23.0626 10.2814 21.2345 10.8595C21.2084 11.3491 21.1511 11.8439 21.0522 12.3439C20.5105 15.1147 18.8751 17.37 17.3074 18.9741C18.9897 18.8179 20.922 18.3543 22.4636 17.172ZM14.9897 68.0314H77.1043C82.6147 68.0314 87.797 65.7189 91.4688 61.7241H0.619873C4.29175 65.7189 9.47404 68.0314 14.9897 68.0314ZM9.698 17.4689C8.84904 15.3804 8.19279 12.6772 8.73446 9.90121C8.83342 9.40641 8.96883 8.92725 9.13029 8.46371C7.65633 7.22933 5.91675 6.46891 4.70841 6.05225C4.36987 7.93246 4.09904 11.2397 5.60946 13.8283C6.58862 15.5106 8.198 16.6825 9.698 17.4689ZM9.30216 58.5731C9.3855 58.4116 9.45841 58.245 9.51571 58.0731L13.5365 46.1877L9.75008 45.4377C8.90112 45.271 8.34904 44.4429 8.51571 43.5887C8.68237 42.7345 9.5105 42.1773 10.3595 42.3491L14.5522 43.1773L17.099 35.6512L11.8751 34.62C11.0261 34.4481 10.474 33.62 10.6407 32.7658C10.8074 31.9116 11.6355 31.3595 12.4845 31.5262L18.1147 32.6408L19.7449 27.8335C20.4115 25.8595 20.2865 23.7189 19.422 21.8439C18.1355 22.1095 16.8959 22.1929 15.8386 22.1929C14.1199 22.1929 12.8959 21.9689 12.7761 21.9481C12.7761 21.9481 12.7709 21.9481 12.7657 21.9429H12.7605C12.573 21.9064 9.52612 21.2554 6.65112 19.3127C5.14071 20.7137 4.21883 22.6512 4.08862 24.7345L3.96883 26.6252L8.47404 27.521C9.323 27.6877 9.87508 28.5158 9.70841 29.37C9.56258 30.12 8.90633 30.6408 8.17196 30.6408C8.073 30.6408 7.96883 30.6304 7.86466 30.6095L3.77612 29.8022L3.38029 36.1616C3.44279 36.1668 3.50529 36.172 3.573 36.1825L8.19279 37.0991C9.04175 37.2658 9.59383 38.0991 9.42716 38.9481C9.27612 39.7033 8.62508 40.2189 7.89071 40.2189C7.78654 40.2189 7.68758 40.2137 7.58341 40.1929L3.18237 39.3179L2.78654 45.6668L6.36987 46.3752C7.21883 46.5418 7.77091 47.37 7.60425 48.2241C7.45841 48.9741 6.80216 49.495 6.06779 49.495C5.96362 49.495 5.86467 49.4845 5.7605 49.4689L2.59383 48.8387L2.10946 56.6043C2.06779 57.3075 2.21883 57.9845 2.52091 58.5731H9.30216ZM13.5105 18.1564C15.0105 16.9741 17.3959 14.6772 17.974 11.7345C18.5522 8.79183 17.2136 5.75537 16.2761 4.0887C14.7813 5.27621 12.3959 7.56787 11.8178 10.5158C11.3751 12.7606 12.073 15.0627 12.7345 16.5991C12.9949 17.1929 13.2657 17.7241 13.5105 18.1564ZM49.1824 19.1825H50.7553V20.7554C50.7553 21.6252 51.4584 22.3335 52.323 22.3335C53.1876 22.3335 53.8907 21.6252 53.8907 20.7554V19.1825H55.4636C56.3282 19.1825 57.0313 18.4741 57.0313 17.6043C57.0313 16.7345 56.3282 16.0314 55.4636 16.0314H53.8907V14.4533C53.8907 13.5835 53.1876 12.8804 52.323 12.8804C51.4584 12.8804 50.7553 13.5835 50.7553 14.4533V16.0314H49.1824C48.3178 16.0314 47.6147 16.7345 47.6147 17.6043C47.6147 18.4741 48.3178 19.1825 49.1824 19.1825ZM61.7397 8.15121H63.3074V9.72933C63.3074 10.5991 64.0105 11.3022 64.8803 11.3022C65.7449 11.3022 66.448 10.5991 66.448 9.72933V8.15121H68.0157C68.8855 8.15121 69.5886 7.44808 69.5886 6.57308C69.5886 5.70329 68.8855 5.00016 68.0157 5.00016H66.448V3.42204C66.448 2.55225 65.7449 1.84912 64.8803 1.84912C64.0105 1.84912 63.3074 2.55225 63.3074 3.42204V5.00016H61.7397C60.8751 5.00016 60.172 5.70329 60.172 6.57308C60.172 7.44808 60.8751 8.15121 61.7397 8.15121ZM94.698 5.00016H93.1251V3.42204C93.1251 2.55225 92.4272 1.84912 91.5574 1.84912C90.6928 1.84912 89.9897 2.55225 89.9897 3.42204V5.00016H88.4168C87.5522 5.00016 86.849 5.70329 86.849 6.57308C86.849 7.44808 87.5522 8.15121 88.4168 8.15121H89.9897V9.72933C89.9897 10.5991 90.6928 11.3022 91.5574 11.3022C92.4272 11.3022 93.1251 10.5991 93.1251 9.72933V8.15121H94.698C95.5626 8.15121 96.2657 7.44808 96.2657 6.57308C96.2657 5.70329 95.5626 5.00016 94.698 5.00016ZM72.724 20.7554H74.297V22.3335C74.297 23.2033 74.9949 23.9064 75.8647 23.9064C76.7292 23.9064 77.4324 23.2033 77.4324 22.3335V20.7554H79.0053C79.8699 20.7554 80.573 20.0522 80.573 19.1825C80.573 18.3127 79.8699 17.6043 79.0053 17.6043H77.4324V16.0314C77.4324 15.1616 76.7292 14.4533 75.8647 14.4533C74.9949 14.4533 74.297 15.1616 74.297 16.0314V17.6043H72.724C71.8595 17.6043 71.1563 18.3127 71.1563 19.1825C71.1563 20.0522 71.8595 20.7554 72.724 20.7554ZM36.6303 6.57308H38.198V8.15121C38.198 9.021 38.9011 9.72933 39.7657 9.72933C40.6355 9.72933 41.3386 9.021 41.3386 8.15121V6.57308H42.9063C43.7709 6.57308 44.474 5.86996 44.474 5.00016C44.474 4.13037 43.7709 3.42204 42.9063 3.42204H41.3386V1.84912C41.3386 0.979329 40.6355 0.270996 39.7657 0.270996C38.9011 0.270996 38.198 0.979329 38.198 1.84912V3.42204H36.6303C35.7605 3.42204 35.0574 4.13037 35.0574 5.00016C35.0574 5.86996 35.7605 6.57308 36.6303 6.57308ZM31.974 31.745C32.0886 31.7762 32.2084 31.7866 32.323 31.7866C33.0417 31.7866 33.6876 31.2918 33.8542 30.5627C34.8803 26.0575 36.9167 23.6356 39.9063 23.3647C40.7709 23.2866 41.4063 22.521 41.3282 21.6564C41.2553 20.7866 40.4897 20.146 39.6251 20.2293C35.2553 20.6252 32.1199 24.047 30.7917 29.8595C30.599 30.7085 31.1251 31.5522 31.974 31.745ZM79.8438 34.8283C80.073 34.9481 80.323 35.0106 80.573 35.0106C81.1355 35.0106 81.6824 34.7033 81.9636 34.1668C83.1043 31.9845 84.849 30.646 87.1563 30.1825C88.0053 30.0106 88.5574 29.1825 88.3907 28.3283C88.2188 27.4741 87.3907 26.922 86.5418 27.0887C83.3074 27.7398 80.7605 29.6825 79.1824 32.6981C78.7813 33.4689 79.073 34.422 79.8438 34.8283Z" fill="white"/>
</mask>
<g mask="url(#mask1_547_197)">
<path d="M0.619873 0.270996V68.0314H59.4011V0.270996H0.619873Z" fill="white"/>
</g>
</g>
</svg>
