<svg width="55" height="70" viewBox="0 0 55 70" fill="none" xmlns="http://www.w3.org/2000/svg">
<mask id="mask0_547_256" style="mask-type:luminance" maskUnits="userSpaceOnUse" x="0" y="0" width="55" height="70">
<path d="M0.380127 0.296875H54.3489V69.2552H0.380127V0.296875Z" fill="white"/>
</mask>
<g mask="url(#mask0_547_256)">
<mask id="mask1_547_256" style="mask-type:luminance" maskUnits="userSpaceOnUse" x="0" y="0" width="99" height="70">
<path d="M77.8853 34.3802C78.8697 35.6094 79.1145 37.2917 79.1405 38.5156C77.9478 38.2188 76.3593 37.6094 75.3749 36.3802C74.3905 35.151 74.1458 33.4687 74.1145 32.2396C75.3072 32.5417 76.901 33.151 77.8853 34.3802ZM54.9322 40.1771L50.1614 42.5573L50.6978 42.6458C52.776 42.9948 54.4739 44.526 55.052 46.526C55.6093 46.0625 56.2551 45.6875 56.9739 45.4323C57.6822 45.1771 58.4114 45.0521 59.1353 45.0521C60.578 45.0521 61.9947 45.5573 63.1562 46.5208L63.3697 46.6979C63.927 44.4271 65.0416 42.3385 66.5833 40.5469L64.2551 40.0313C62.2343 39.5833 60.8228 37.8281 60.8228 35.7656C60.8228 33.4271 61.4635 31.1354 62.6666 29.1302L63.6093 27.5625H61.8645L59.276 30.7917C58.0312 32.3438 57.3437 34.2969 57.3437 36.2865C57.3437 37.9427 56.4218 39.4375 54.9322 40.1771ZM30.776 33.4583C30.6458 34.6823 30.6405 35.5052 30.6405 35.5729C30.6353 36.4583 31.3541 37.1771 32.2395 37.1823H32.2447C33.1301 37.1823 33.8489 36.4688 33.8541 35.5833C33.8541 35.5521 33.8645 34.7292 34.0051 33.5313C35.7551 32.1615 37.9114 31.4115 40.151 31.4115C44.8801 31.4115 48.8437 34.7135 49.8593 39.125L44.3072 41.8958C43.6822 42.2083 43.3333 42.8802 43.4374 43.5677C43.526 44.1719 43.953 44.6615 44.5155 44.849C42.9322 47.0677 42.078 49.7031 42.078 52.5521C42.078 55.0938 42.7395 57.4948 43.901 59.6354H20.6614C19.7551 58.3177 18.8593 56.6406 18.026 54.6667C17.2916 52.9219 16.6822 51.1354 16.1926 49.4271L22.2135 31.7344C23.0155 31.526 23.8593 31.4115 24.7239 31.4115C26.9218 31.4115 29.0416 32.1354 30.776 33.4583ZM30.3593 37.9271C29.7343 37.3021 28.7187 37.3021 28.0885 37.9271C27.4635 38.5521 27.4635 39.5677 28.0885 40.1927C29.2864 41.3906 30.8645 41.9896 32.4374 41.9896C34.0155 41.9896 35.5885 41.3906 36.7864 40.1927C37.4166 39.5677 37.4166 38.5521 36.7864 37.9271C36.1614 37.3021 35.1458 37.3021 34.5155 37.9271C33.3697 39.0729 31.5051 39.0729 30.3593 37.9271ZM95.1041 50.0104C95.1041 53.8906 93.0208 57.3542 89.776 59.6354H71.5051C68.2603 57.3542 66.1822 53.8906 66.1822 50.0104C66.1822 45.3594 69.177 41.2969 73.5937 39.1667C76.302 41.724 80.3645 41.9792 80.552 41.9896C80.5833 41.9948 80.6145 41.9948 80.6458 41.9948C81.4218 41.9948 82.0989 41.4323 82.2291 40.6563C82.2395 40.5833 82.3385 39.9688 82.3541 39.0625C82.4062 38.6667 82.4843 38.2031 82.5989 37.6979C89.651 38.526 95.1041 43.7292 95.1041 50.0104ZM71.0051 51.6146C71.0051 50.7292 70.2864 50.0104 69.401 50.0104H69.3958C68.5103 50.0104 67.7916 50.7292 67.7916 51.6146C67.7916 52.5 68.5103 53.2188 69.401 53.2188C70.2864 53.2188 71.0051 52.5 71.0051 51.6146ZM74.2187 46.8021C75.1041 46.8021 75.828 46.0885 75.828 45.2031C75.828 44.3177 75.1041 43.599 74.2187 43.599C73.328 43.599 72.6093 44.3177 72.6093 45.2031C72.6093 46.0885 73.3333 46.8021 74.2187 46.8021ZM77.4322 54.8229C77.4322 53.9375 76.7135 53.2188 75.828 53.2188H75.8228C74.9374 53.2188 74.2187 53.9375 74.2187 54.8229C74.2187 55.7083 74.9374 56.4271 75.828 56.4271C76.7135 56.4271 77.4322 55.7083 77.4322 54.8229ZM82.2551 48.4063C82.2551 47.5208 81.5312 46.8021 80.6458 46.8021C79.7551 46.8021 79.0364 47.5208 79.0364 48.4063C79.0364 49.2917 79.7603 50.0104 80.6458 50.0104C81.5312 50.0104 82.2551 49.2917 82.2551 48.4063ZM85.4687 54.8229C85.4687 53.9375 84.7447 53.2188 83.8593 53.2188C82.9687 53.2188 82.2499 53.9375 82.2499 54.8229C82.2499 55.7083 82.9739 56.4271 83.8593 56.4271C84.7447 56.4271 85.4687 55.7083 85.4687 54.8229ZM87.0728 45.2031C87.9583 45.2031 88.6822 44.4844 88.6822 43.599C88.6822 42.7135 87.9583 41.9948 87.0728 41.9948C86.1822 41.9948 85.4635 42.7135 85.4635 43.599C85.4635 44.4844 86.1874 45.2031 87.0728 45.2031ZM90.2864 51.6146C90.2864 50.7292 89.5676 50.0104 88.6822 50.0104H88.677C87.7916 50.0104 87.0728 50.7292 87.0728 51.6146C87.0728 52.5 87.7916 53.2188 88.6822 53.2188C89.5676 53.2188 90.2864 52.5 90.2864 51.6146ZM61.0989 48.9844C60.2447 48.276 59.1093 48.0781 58.0572 48.4531C57.0208 48.8229 56.3124 49.6458 56.1145 50.7083C56.0624 50.9635 56.026 51.2344 55.9947 51.5104C55.9166 52.3021 55.2708 52.9115 54.4739 52.9479C54.4478 52.9531 54.4218 52.9531 54.3958 52.9531C53.6353 52.9531 52.9739 52.4167 52.8228 51.6615L52.0051 47.5833C51.8228 46.6771 51.0885 45.9635 50.1718 45.8125L48.1666 45.4792C46.2812 47.3802 45.2916 49.7969 45.2916 52.5521C45.2916 55.1667 46.1822 57.6042 47.7083 59.6354H66.7239C64.4895 57.1094 63.1093 53.9688 62.9791 50.5521L61.0989 48.9844ZM14.4843 54.4531L12.7187 59.6354H16.8801C16.1874 58.4063 15.578 57.1302 15.0624 55.9115C14.8645 55.4323 14.6718 54.9479 14.4843 54.4531ZM22.7551 17.4948C25.1874 15.6406 26.2135 12.4271 26.6197 10.5208C25.3176 10.4479 23.3697 10.4844 21.4999 11.0729C21.4739 11.5729 21.4166 12.0781 21.3124 12.5833C20.7551 15.4063 19.0833 17.6979 17.4739 19.3333C19.203 19.1719 21.177 18.6979 22.7551 17.4948ZM15.1041 69.2552H78.6978C84.3437 69.2552 89.6458 66.901 93.4062 62.8385H0.395752C4.15617 66.901 9.45825 69.2552 15.1041 69.2552ZM9.68742 17.7969C8.81763 15.6771 8.14575 12.9219 8.70304 10.099C8.802 9.59375 8.94263 9.10417 9.10409 8.63542C7.59888 7.38021 5.81763 6.60417 4.58325 6.18229C4.23429 8.09375 3.95304 11.4583 5.49992 14.099C6.50513 15.8073 8.15096 16.9948 9.68742 17.7969ZM9.28117 59.6354C9.3645 59.4688 9.44263 59.3021 9.49992 59.1198L13.6145 47.026L9.7395 46.2656C8.86971 46.0938 8.302 45.25 8.47388 44.3802C8.64575 43.5104 9.49471 42.9479 10.3645 43.1198L14.6562 43.9635L17.2655 36.3073L11.9166 35.25C11.0468 35.0833 10.4843 34.2396 10.651 33.3698C10.8228 32.5 11.6718 31.9323 12.5416 32.1042L18.3072 33.2396L19.9739 28.349C20.6562 26.3437 20.5312 24.1563 19.6458 22.25C18.3228 22.526 17.0572 22.6094 15.9739 22.6094C14.2135 22.6094 12.9583 22.3802 12.8385 22.3594C12.8385 22.3542 12.8333 22.3542 12.828 22.3542H12.8228C12.6301 22.3125 9.51034 21.6563 6.56763 19.6771C5.02075 21.1042 4.07804 23.0781 3.94263 25.1927L3.82284 27.1198L8.43221 28.026C9.302 28.1979 9.86971 29.0417 9.69784 29.9115C9.54679 30.6771 8.87492 31.2031 8.12492 31.2031C8.02075 31.2031 7.91659 31.1927 7.81242 31.1719L3.61971 30.349L3.21867 36.8229C3.28117 36.8281 3.34888 36.8333 3.41659 36.849L8.14575 37.776C9.01554 37.9479 9.58325 38.7917 9.41138 39.6615C9.26033 40.4271 8.58846 40.9531 7.83325 40.9531C7.72909 40.9531 7.62492 40.9427 7.52075 40.9219L3.01554 40.0365L2.6145 46.4948L6.27596 47.2188C7.14575 47.3906 7.71346 48.2344 7.54159 49.099C7.39054 49.8646 6.71867 50.3958 5.96867 50.3958C5.8645 50.3958 5.76033 50.3854 5.65617 50.3646L2.41138 49.724L1.91659 57.6302C1.87492 58.3438 2.03117 59.0313 2.33846 59.6354H9.28117ZM13.5937 18.5C15.1249 17.2969 17.5676 14.9583 18.1614 11.9635C18.7551 8.96875 17.3853 5.88021 16.4218 4.18229C14.8905 5.39063 12.4478 7.72396 11.8541 10.7188C11.4062 13.0104 12.1197 15.349 12.7968 16.9115C13.0624 17.5208 13.3385 18.0573 13.5937 18.5ZM50.1145 19.5417H51.7187V21.1458C51.7187 22.0313 52.4374 22.75 53.328 22.75C54.2135 22.75 54.9322 22.0313 54.9322 21.1458V19.5417H56.5416C57.427 19.5417 58.1458 18.8229 58.1458 17.9375C58.1458 17.0521 57.427 16.3333 56.5416 16.3333H54.9322V14.7292C54.9322 13.8437 54.2135 13.1302 53.328 13.1302C52.4374 13.1302 51.7187 13.8437 51.7187 14.7292V16.3333H50.1145C49.2239 16.3333 48.5051 17.0521 48.5051 17.9375C48.5051 18.8229 49.2239 19.5417 50.1145 19.5417ZM62.9687 8.31771H64.5728V9.92188C64.5728 10.8073 65.2916 11.526 66.1822 11.526C67.0676 11.526 67.7864 10.8073 67.7864 9.92188V8.31771H69.3958C70.2812 8.31771 70.9999 7.59896 70.9999 6.71354C70.9999 5.82813 70.2812 5.10938 69.3958 5.10938H67.7864V3.50521C67.7864 2.61979 67.0676 1.90104 66.1822 1.90104C65.2916 1.90104 64.5728 2.61979 64.5728 3.50521V5.10938H62.9687C62.078 5.10938 61.3593 5.82813 61.3593 6.71354C61.3593 7.59896 62.078 8.31771 62.9687 8.31771ZM96.7083 5.10938H95.1041V3.50521C95.1041 2.61979 94.3853 1.90104 93.4947 1.90104C92.6093 1.90104 91.8905 2.61979 91.8905 3.50521V5.10938H90.2812C89.3958 5.10938 88.677 5.82813 88.677 6.71354C88.677 7.59896 89.3958 8.31771 90.2812 8.31771H91.8905V9.92188C91.8905 10.8073 92.6093 11.526 93.4947 11.526C94.3853 11.526 95.1041 10.8073 95.1041 9.92188V8.31771H96.7083C97.5989 8.31771 98.3176 7.59896 98.3176 6.71354C98.3176 5.82813 97.5989 5.10938 96.7083 5.10938ZM74.2135 21.1458H75.8228V22.75C75.8228 23.6354 76.5416 24.3542 77.427 24.3542C78.3176 24.3542 79.0364 23.6354 79.0364 22.75V21.1458H80.6405C81.5312 21.1458 82.2499 20.4271 82.2499 19.5417C82.2499 18.6563 81.5312 17.9375 80.6405 17.9375H79.0364V16.3333C79.0364 15.4479 78.3176 14.7292 77.427 14.7292C76.5416 14.7292 75.8228 15.4479 75.8228 16.3333V17.9375H74.2135C73.328 17.9375 72.6093 18.6563 72.6093 19.5417C72.6093 20.4271 73.328 21.1458 74.2135 21.1458ZM37.2603 6.71354H38.8645V8.31771C38.8645 9.20313 39.5833 9.92188 40.4739 9.92188C41.3593 9.92188 42.078 9.20313 42.078 8.31771V6.71354H43.6874C44.5728 6.71354 45.2916 5.99479 45.2916 5.10938C45.2916 4.22396 44.5728 3.50521 43.6874 3.50521H42.078V1.90104C42.078 1.01563 41.3593 0.296875 40.4739 0.296875C39.5833 0.296875 38.8645 1.01563 38.8645 1.90104V3.50521H37.2603C36.3697 3.50521 35.651 4.22396 35.651 5.10938C35.651 5.99479 36.3697 6.71354 37.2603 6.71354ZM32.4895 32.3333C32.6145 32.3594 32.7343 32.3698 32.8541 32.3698C33.5833 32.3698 34.2447 31.8698 34.4166 31.125C35.4687 26.5417 37.5572 24.0781 40.6197 23.8021C41.4999 23.724 42.151 22.9427 42.0728 22.0625C41.9947 21.1771 41.2135 20.526 40.328 20.6094C35.8541 21.0104 32.6405 24.4896 31.2864 30.4115C31.0885 31.2708 31.6249 32.1354 32.4895 32.3333ZM81.4999 35.4635C81.7395 35.5885 81.9947 35.651 82.2499 35.651C82.8228 35.651 83.3853 35.3385 83.6718 34.7917C84.8385 32.5729 86.6301 31.2083 88.9895 30.7344C89.8593 30.5625 90.427 29.7187 90.2499 28.849C90.078 27.9792 89.2291 27.4167 88.3593 27.5938C85.0468 28.2552 82.4426 30.2292 80.828 33.3021C80.4114 34.0833 80.7187 35.0521 81.4999 35.4635Z" fill="white"/>
</mask>
<g mask="url(#mask1_547_256)">
<path d="M0.395752 0.296875V69.2552H54.3489V0.296875H0.395752Z" fill="#1E37B8"/>
</g>
</g>
</svg>
