<svg width="79" height="68" viewBox="0 0 79 68" fill="none" xmlns="http://www.w3.org/2000/svg">
<mask id="mask0_547_275" style="mask-type:luminance" maskUnits="userSpaceOnUse" x="0" y="0" width="79" height="68">
<path d="M0.223877 0.609375H78.177V67.5677H0.223877V0.609375Z" fill="white"/>
</mask>
<g mask="url(#mask0_547_275)">
<mask id="mask1_547_275" style="mask-type:luminance" maskUnits="userSpaceOnUse" x="0" y="0" width="79" height="68">
<path d="M78.177 30.3645V28.802L76.6353 28.6301C76.2239 28.5885 71.7864 28.1405 66.0468 29.0103V17.5885L64.0989 17.8437C60.8801 18.2655 57.8958 18.8905 55.1353 19.6926C52.1405 13.2551 47.177 7.177 40.2864 1.52596L39.1978 0.630127L38.1145 1.52596C31.2239 7.177 26.2603 13.2551 23.2655 19.6926C20.5051 18.8905 17.5208 18.2655 14.302 17.8437L12.3541 17.5885V29.0103C6.60929 28.1405 2.177 28.5885 1.76554 28.6301L0.223877 28.802V30.3645C0.223877 43.2135 3.63533 52.9895 10.3749 59.4374C15.9426 64.7656 23.6093 67.5468 32.651 67.5468C33.3645 67.5468 34.0885 67.526 34.8176 67.4947H37.2968L36.802 65.3437C35.578 59.9843 33.552 47.026 39.1978 36.4687C44.8489 47.026 42.8176 59.9843 41.5989 65.3437L41.1041 67.4947H43.5833C44.3124 67.526 45.0364 67.5468 45.7499 67.5468C54.7916 67.5468 62.4583 64.7656 68.026 59.4374C74.7603 52.9895 78.177 43.2135 78.177 30.3645ZM62.5989 21.5885V29.677C61.203 30.0051 59.7655 30.4114 58.3228 30.9322C58.0155 28.2187 57.3958 25.552 56.4635 22.9374C58.3853 22.3958 60.427 21.9374 62.5989 21.5885ZM15.802 21.5885C17.9739 21.9374 20.0155 22.3958 21.9374 22.9374C21.0051 25.552 20.3853 28.2187 20.078 30.9322C18.6353 30.4166 17.1978 30.0051 15.802 29.677V21.5885ZM12.7395 56.901C7.00513 51.4114 3.96346 43.0416 3.69263 32.0103C5.48429 31.953 8.65617 31.9843 12.3541 32.6041V42.9635C12.3541 50.8801 20.1093 58.7968 27.7499 63.7395C22.703 63.0676 17.2291 61.1978 12.7395 56.901ZM15.802 42.9635V33.3385C17.1353 33.6874 18.4999 34.1197 19.8645 34.6562C19.7968 45.1301 24.2655 54.0676 28.1978 59.8801C21.453 55.1614 15.802 48.4947 15.802 42.9635ZM32.3593 59.7187C28.6978 54.7291 23.776 46.2291 23.3385 36.2708C26.8801 38.1978 30.1978 40.9791 32.7083 44.9739C31.7343 50.3124 31.8801 55.5312 32.3593 59.7187ZM33.7968 40.5103C30.802 36.7291 27.1562 34.1197 23.4114 32.3228C23.6353 29.4999 24.2395 26.7291 25.2239 24.0103C30.4687 25.9635 34.6197 28.7551 37.6197 32.3697C35.9062 34.9583 34.6666 37.7187 33.7968 40.5103ZM39.1978 28.9166C35.9583 25.4478 31.7395 22.7395 26.578 20.7968C29.2083 15.3072 33.4218 10.0728 39.1978 5.14054C44.9791 10.0728 49.1926 15.3072 51.8228 20.7968C46.6614 22.7395 42.4374 25.4478 39.1978 28.9166ZM40.776 32.3697C43.7812 28.7551 47.9322 25.9635 53.177 24.0103C54.1614 26.7239 54.7603 29.4999 54.9895 32.3228C51.2395 34.1197 47.5989 36.7291 44.6041 40.5103C43.7343 37.7187 42.4947 34.9583 40.776 32.3697ZM45.6926 44.9739C48.203 40.9791 51.5208 38.1978 55.0624 36.2708C54.6249 46.2343 49.703 54.7291 46.0416 59.7187C46.5208 55.5312 46.6666 50.3124 45.6926 44.9739ZM58.5364 34.6562C59.901 34.1197 61.2655 33.6874 62.5989 33.3385V42.9635C62.5989 48.4947 56.9478 55.1614 50.203 59.8801C54.1353 54.0676 58.6041 45.1301 58.5364 34.6562ZM65.6562 56.901C61.1718 61.1978 55.6978 63.0676 50.651 63.7395C58.2916 58.7968 66.0468 50.8853 66.0468 42.9635V32.6041C69.7447 31.9843 72.9166 31.953 74.7083 32.0103C74.4374 43.0416 71.3958 51.4114 65.6562 56.901Z" fill="white"/>
</mask>
<g mask="url(#mask1_547_275)">
<path d="M0.223877 0.630127V67.5468H78.177V0.630127H0.223877Z" fill="#1E37B8"/>
</g>
</g>
</svg>
