<svg width="77" height="61" viewBox="0 0 77 61" fill="none" xmlns="http://www.w3.org/2000/svg">
<mask id="mask0_547_276" style="mask-type:luminance" maskUnits="userSpaceOnUse" x="18" y="25" width="46" height="36">
<path d="M18 25.9688H63.099V60.2135H18V25.9688Z" fill="white"/>
</mask>
<g mask="url(#mask0_547_276)">
<path d="M27.8958 37.8438C24.2916 41.4792 16.5156 43.3854 18.2864 52.8334C20.0885 62.4688 33.4062 59.9844 40.3489 59.7709C44.0416 59.6563 59.2343 62.4948 62.2291 54.8542C64.8489 48.1667 60.526 43.6927 53.9739 38.4271C48.1249 33.724 46.4635 25.9115 39.6822 25.9792C33.3333 26.0417 30.0989 35.6146 27.8958 37.8438Z" fill="#1E37B8"/>
</g>
<mask id="mask1_547_276" style="mask-type:luminance" maskUnits="userSpaceOnUse" x="0" y="18" width="20" height="20">
<path d="M0.838623 18.6667H19.3334V37.3334H0.838623V18.6667Z" fill="white"/>
</mask>
<g mask="url(#mask1_547_276)">
<path d="M15.5782 23.5054C19.297 27.7033 20.0053 33.0262 17.1564 35.3908C14.3074 37.7554 8.97927 36.271 5.26052 32.0679C1.54177 27.8699 0.838647 22.547 3.6824 20.1824C6.53136 17.8179 11.8595 19.3074 15.5782 23.5054Z" fill="#1E37B8"/>
</g>
<path d="M33.7135 10.2656C35.4948 16.3072 33.8177 22.0728 29.9687 23.1406C26.1146 24.2135 21.5469 20.177 19.7604 14.1353C17.9791 8.08847 19.6562 2.32285 23.5052 1.25514C27.3594 0.187432 31.9271 4.21868 33.7135 10.2656Z" fill="#1E37B8"/>
<path d="M57.0103 12.8751C55.2239 18.7918 50.7395 22.7553 46.9999 21.7241C43.2603 20.698 41.677 15.0678 43.4635 9.15115C45.2551 3.22928 49.7343 -0.734264 53.4791 0.296985C57.2187 1.32303 58.802 6.95324 57.0103 12.8751Z" fill="#1E37B8"/>
<path d="M73.1668 31.8647C69.2553 36.3908 63.6303 38.0679 60.5991 35.6147C57.5678 33.1564 58.2813 27.5001 62.1876 22.9741C66.0938 18.4481 71.7241 16.771 74.7553 19.2241C77.7866 21.6772 77.0782 27.3387 73.1668 31.8647Z" fill="#1E37B8"/>
</svg>
